<svg xmlns="http://www.w3.org/2000/svg" viewBox="0 0 1200 420" preserveAspectRatio="none"><defs><linearGradient id="s" x1="0" y1="0" x2="1" y2="0"><stop stop-color="#4D244D"/><stop offset=".5" stop-color="#9C3B67"/><stop offset="1" stop-color="#F05D83"/></linearGradient></defs><rect width="1200" height="420" rx="46" fill="url(#s)"/><g fill="#fff" opacity=".65"><circle cx="430" cy="66" r="2.2"/><circle cx="615" cy="40" r="2.8"/><circle cx="795" cy="74" r="2"/><circle cx="930" cy="52" r="2.5"/><circle cx="1030" cy="104" r="1.8"/><circle cx="705" cy="118" r="1.8"/></g><path d="M0 318c106-32 164-28 239 7 88 41 186 20 274-33 76-46 141-37 214 15 85 61 187 50 275 16 74-29 132-25 198 11v86H0z" fill="#6E315F" opacity=".82"/><path d="M0 345c126-42 250-24 354 36 98 57 221 48 320-7 117-65 241-60 348 7 59 36 117 40 178 23v16H0z" fill="#4B284F" opacity=".92"/></svg>