<svg xmlns="http://www.w3.org/2000/svg" width="320" height="320" viewBox="0 0 320 320">
  <defs>
    <g id="paw">
      <ellipse cx="-15" cy="-14" rx="8" ry="11" transform="rotate(-18 -15 -14)"/>
      <ellipse cx="0" cy="-20" rx="8" ry="11"/>
      <ellipse cx="15" cy="-14" rx="8" ry="11" transform="rotate(18 15 -14)"/>
      <ellipse cx="-24" cy="2" rx="7" ry="10" transform="rotate(-28 -24 2)"/>
      <path d="M0-2C-18-2-28 10-24 24-20 38-6 36 0 31 6 36 20 38 24 24 28 10 18-2 0-2Z"/>
    </g>
  </defs>
  <g fill="#F06292" opacity="0.95">
    <use href="#paw" transform="translate(54 58) scale(0.72) rotate(-12)"/>
    <use href="#paw" transform="translate(180 52) scale(0.48) rotate(14)"/>
    <use href="#paw" transform="translate(274 92) scale(0.62) rotate(-8)"/>
    <use href="#paw" transform="translate(104 164) scale(0.6) rotate(8)"/>
    <use href="#paw" transform="translate(230 180) scale(0.82) rotate(-16)"/>
    <use href="#paw" transform="translate(44 270) scale(0.52) rotate(10)"/>
    <use href="#paw" transform="translate(154 258) scale(0.68) rotate(-6)"/>
    <use href="#paw" transform="translate(286 270) scale(0.44) rotate(16)"/>
  </g>
  <g fill="none" stroke="#EC407A" stroke-width="2.4" opacity="0.95">
    <use href="#paw" transform="translate(292 24) scale(0.42) rotate(12)"/>
    <use href="#paw" transform="translate(40 154) scale(0.45) rotate(-8)"/>
    <use href="#paw" transform="translate(244 294) scale(0.36) rotate(8)"/>
  </g>
</svg>
