<svg xmlns="http://www.w3.org/2000/svg" width="320" height="320" viewBox="0 0 320 320">
  <g fill="none" stroke-linecap="round" stroke-linejoin="round">
    <path d="M-18 32C22 8 58 4 92 22s58 16 86-8 66-26 106-8 56 24 66 10" stroke="#F48FB1" stroke-width="3"/>
    <path d="M-22 54C18 30 56 28 88 42s60 22 92-2 70-20 108 0 46 16 64 10" stroke="#EC407A" stroke-width="2.5"/>
    <path d="M-16 80C18 56 56 54 94 70s58 20 86 0 62-28 108-12 52 18 66 10" stroke="#F8BBD0" stroke-width="3"/>
    <path d="M-24 112C12 86 56 84 92 100s64 24 98 0 72-22 108-4 40 18 56 12" stroke="#F06292" stroke-width="2.7"/>
    <path d="M-20 148C22 120 62 122 98 138s54 18 84-2 68-30 108-12 48 26 62 18" stroke="#F8BBD0" stroke-width="3"/>
    <path d="M-22 180C18 154 58 154 92 168s62 24 98 0 66-18 104 2 48 20 62 14" stroke="#EC407A" stroke-width="2.5"/>
    <path d="M-18 214C18 190 60 188 94 204s58 20 88 0 70-28 110-8 46 24 62 16" stroke="#F48FB1" stroke-width="3"/>
    <path d="M-22 248C18 222 58 222 96 238s58 22 88 0 68-24 108-6 48 22 62 16" stroke="#F06292" stroke-width="2.7"/>
    <path d="M-18 286C18 260 56 258 94 274s60 22 92 0 66-22 104-6 48 24 64 18" stroke="#F8BBD0" stroke-width="3"/>
    <path d="M72 126c-20-14-24-38-8-54 18-18 54-12 68 14 12 22 0 50-24 58-16 6-28 0-36-18Z" stroke="#EC407A" stroke-width="2.3"/>
    <path d="M82 122c-12-10-14-24-4-34 12-12 34-8 42 8 8 14 0 30-14 36-10 4-18 0-24-10Z" stroke="#F48FB1" stroke-width="2"/>
    <path d="M230 220c-22-14-28-38-12-58 18-22 58-18 74 10 14 24 0 54-28 64-14 6-26 0-34-16Z" stroke="#EC407A" stroke-width="2.3"/>
    <path d="M242 216c-12-10-14-24-4-36 12-14 36-10 44 8 8 16 0 34-16 40-10 4-18 0-24-12Z" stroke="#F48FB1" stroke-width="2"/>
  </g>
</svg>
